<?xml version="1.0" standalone="no"?>
<!DOCTYPE svg PUBLIC "-//W3C//DTD SVG 20010904//EN"
 "http://www.w3.org/TR/2001/REC-SVG-20010904/DTD/svg10.dtd">
<svg version="1.0" xmlns="http://www.w3.org/2000/svg"
 width="700.000000pt" height="700.000000pt" viewBox="0 0 700.000000 700.000000"
 preserveAspectRatio="xMidYMid meet">
<metadata>
Created by potrace 1.14, written by Peter Selinger 2001-2017
</metadata>
<g transform="translate(0.000000,700.000000) scale(0.100000,-0.100000)"
fill="#000000" stroke="none">
<path d="M280 6986 c-74 -16 -127 -46 -176 -98 -52 -54 -79 -107 -93 -183 -16
-83 -16 -6327 0 -6410 14 -78 47 -140 101 -191 54 -52 107 -79 183 -93 83 -16
6327 -16 6410 0 78 14 140 47 191 101 52 54 79 107 93 183 16 83 16 6327 0
6410 -14 78 -47 140 -101 191 -54 52 -107 79 -183 93 -89 17 -6350 14 -6425
-3z m2495 -1351 c211 -62 462 -213 698 -419 l77 -68 56 48 c367 322 663 474
925 474 145 0 240 -39 329 -137 180 -197 225 -606 121 -1108 -10 -49 -18 -91
-17 -91 0 -1 64 -23 141 -48 167 -56 395 -164 514 -243 127 -84 258 -219 304
-313 70 -142 71 -257 3 -395 -112 -228 -442 -452 -866 -590 -47 -15 -86 -28
-87 -29 -1 -1 7 -44 17 -96 67 -324 67 -663 -1 -870 -54 -166 -157 -294 -276
-342 -51 -20 -74 -23 -193 -22 -120 0 -145 3 -220 28 -214 70 -472 232 -690
433 l-54 50 -76 -66 c-306 -270 -624 -432 -875 -448 -324 -20 -506 183 -545
611 -17 177 5 407 66 686 5 24 1 27 -53 44 -474 147 -845 416 -933 675 -91
272 116 560 555 771 125 60 302 128 393 151 40 10 51 17 47 29 -41 129 -76
396 -76 585 -1 409 124 650 374 720 78 22 229 13 342 -20z"/>
<path d="M2493 5451 c-118 -30 -187 -148 -214 -364 -13 -108 -6 -310 16 -447
13 -82 45 -240 51 -248 0 -1 58 9 128 23 70 13 200 34 289 46 89 11 177 23
194 25 27 4 43 19 90 82 66 91 203 258 289 356 l61 69 -51 46 c-134 121 -288
232 -427 305 -156 83 -339 129 -426 107z"/>
<path d="M4400 5439 c-93 -24 -248 -99 -360 -174 -96 -65 -248 -186 -299 -239
l-34 -35 49 -57 c139 -160 315 -382 343 -432 4 -7 57 -18 136 -27 135 -16 319
-46 439 -71 38 -8 73 -11 77 -7 11 11 45 199 60 323 14 129 6 380 -16 469 -22
90 -69 183 -110 219 -63 56 -154 66 -285 31z"/>
<path d="M3483 4763 c-33 -38 -93 -108 -133 -158 l-73 -90 136 -3 c76 -1 198
-1 273 0 l137 3 -62 78 c-86 109 -200 237 -211 237 -4 0 -35 -30 -67 -67z"/>
<path d="M3262 4290 c-85 -4 -155 -10 -157 -12 -1 -1 -36 -55 -77 -118 -103
-157 -227 -371 -300 -516 l-62 -121 97 -180 c103 -194 169 -306 279 -474 l69
-107 233 -7 c217 -7 534 -1 616 11 31 5 41 14 84 82 103 162 229 378 306 525
l79 152 -68 130 c-89 172 -170 313 -278 481 l-89 139 -49 6 c-91 12 -528 17
-683 9z m448 -359 c285 -109 371 -479 163 -702 -97 -104 -199 -144 -347 -137
-76 3 -102 9 -156 34 -223 105 -316 367 -210 589 50 105 162 197 279 231 65
19 202 12 271 -15z"/>
<path d="M2590 4218 c-96 -16 -177 -32 -179 -34 -7 -6 34 -129 91 -278 l50
-128 60 108 c33 60 94 164 134 231 41 67 74 124 74 127 0 11 -54 5 -230 -26z"/>
<path d="M4286 4223 c35 -54 161 -269 208 -356 27 -48 50 -87 51 -85 17 17
149 387 142 395 -12 11 -344 73 -394 73 l-25 0 18 -27z"/>
<path d="M2067 4090 c-357 -121 -625 -297 -708 -465 -26 -53 -31 -73 -27 -109
16 -139 172 -295 440 -439 147 -79 415 -177 423 -154 3 7 25 72 51 145 38 113
81 220 166 422 15 34 14 37 -47 180 -35 80 -87 214 -117 297 -44 128 -56 153
-73 153 -11 0 -60 -14 -108 -30z"/>
<path d="M4855 3983 c-26 -76 -78 -209 -115 -296 l-69 -159 49 -106 c55 -124
126 -302 166 -418 l28 -82 116 40 c137 47 347 146 451 214 96 63 229 195 259
259 46 96 24 185 -71 290 -89 96 -257 207 -429 280 -94 40 -305 115 -325 115
-7 0 -33 -59 -60 -137z"/>
<path d="M4491 3179 c-30 -55 -91 -161 -137 -237 -59 -99 -78 -138 -68 -140
28 -7 397 58 410 71 8 8 -18 85 -77 235 -77 194 -65 187 -128 71z"/>
<path d="M2515 3179 c-20 -52 -55 -144 -75 -206 l-38 -112 51 -11 c47 -10 226
-39 335 -54 23 -4 42 -5 42 -3 0 2 -48 85 -107 184 -60 100 -122 207 -139 238
l-31 58 -38 -94z"/>
<path d="M4635 2639 c-110 -22 -333 -55 -436 -65 -43 -3 -81 -9 -86 -13 -5 -3
-49 -60 -97 -126 -96 -130 -205 -264 -270 -333 l-41 -44 65 -60 c289 -266 631
-434 814 -400 80 15 122 50 169 143 49 97 66 182 73 364 7 157 -7 300 -44 470
-20 94 -15 92 -147 64z"/>
<path d="M2322 2549 c-39 -189 -46 -252 -46 -429 0 -132 4 -192 18 -245 35
-143 100 -241 175 -267 54 -18 176 -12 255 12 195 61 388 176 601 359 l85 74
-43 46 c-67 72 -235 277 -306 373 -60 81 -68 88 -105 92 -23 3 -101 13 -175
21 -74 9 -186 26 -250 37 -64 11 -132 22 -152 25 l-36 5 -21 -103z"/>
<path d="M3287 2528 c23 -32 186 -228 225 -272 l44 -49 53 59 c61 69 211 259
211 268 0 3 -122 6 -271 6 -216 0 -270 -3 -262 -12z"/>
</g>
</svg>
